<svg xmlns="http://www.w3.org/2000/svg" viewBox="0 0 50.066 50.001"><path fill="#fff" d="M25.064 0C2.424.008-8.576 27.709 7.914 43.22l32.82 1.26A25 25 0 0 0 25.064 0z"/><path fill="#c0b0ca" d="M34.197 42.453c-1.59-2.54-13.05-2.377-17.044 2.149-1.388 1.574 1.6 3.187 2.15 4.728 1.897.433 3.786.684 5.73.67a24.89 24.89 0 0 0 9.63-1.93l.26-.11c.37-.16.77-.31 1.12-.48-.787-.633-.15-2.32-1.846-5.027z"/><path fill="#444445" d="M20.685 8.6h10.39v3.23h-10.39zM13.42 24.04s17.423 3.296 23.92 2.233c1.829-.3.18 4.98.18 4.98l-23.797.166z"/><path fill="#161616" d="M29.744 28.93a3.85 3.85 0 0 0 2.62 1.21 4.54 4.54 0 0 0 3.13-1q-2.89.04-5.75-.21zm-15-4.05c.14 3.62 1.58 5.26 4.67 5.26a4.62 4.62 0 0 0 3.55-2.31 38.7 38.7 0 0 1-4.79-1.55c-1.14-.46-2.29-.91-3.43-1.4z"/><path fill="#4c5e9b" d="M24.117 29.099c-.608.209-.977 3.154-2.054 5.972-.923.111.81 1.41 1.328 1.374.628.145 1.841.022 2.363-.745.684 1.084 3.192.847 3.507-.015 1.391-.316.55-4.601-1.78-6.61-1.1-.73-1.991-.123-3.364.024zM8.394 43.66c.75.6 1.307 1.307 2.14 1.749.658.143 1.363.377 3.775-.849-1.141-.388-2.97-.88-4.074-1.167-.515.038-1.327.317-1.841.267zm5.56 3.75l.4.199c1.576-.214-.081-.262-.4-.2z"/><path fill="#8ba1d2" d="M39.554 34.76l-.19-.13c.47 0 1.84.35 2.17.36a2.49 2.49 0 0 0-.29-.43c.549.009 1.096.052 1.64.13a9.76 9.76 0 0 0-2.67-3.15h.45a4.58 4.58 0 0 0-1.63-.75 8.66 8.66 0 0 0-1-.52v-.11c.38.08.9.19 1 .2a1.12 1.12 0 0 0-.29-.36c.49-.06 1-.11 1.31-.12a3.91 3.91 0 0 0-1.2-.84h-1.99c-.06.08-.1.18-.17.26a5.21 5.21 0 0 1-4.34 1.81 5.37 5.37 0 0 1-4.16-2.4c-1.39-.17-2.77-.41-4.14-.71a5.78 5.78 0 0 1-4.65 3.11c-3.78 0-5.7-2.28-5.72-6.77-.55-.25-1.1-.5-1.63-.78-.11 1.52-.24 2.95-.39 4.3a8 8 0 0 0-1.56.79h.47a5.51 5.51 0 0 0-1.77 1.38h1.32a1.36 1.36 0 0 0-.25.39c.17 0 1.22-.39 1.39-.42a9.15 9.15 0 0 0-1.41.86 4.59 4.59 0 0 0-1.49.9h.45a9.62 9.62 0 0 0-2.28 3.44 12.38 12.38 0 0 1 1.61-.32 4 4 0 0 0-.24.46 15.93 15.93 0 0 0 1.71-.61h.42a1.54 1.54 0 0 0-.19.17 5.1 5.1 0 0 0-2 2.46l1.75-.27a2.8 2.8 0 0 0-.35.63 3.71 3.71 0 0 0 .67-.26 41.06 41.06 0 0 1-2 5.76l.48.44a9.11 9.11 0 0 0 1.77 0c.64-.13-.48.35-.48.35h2.59l-.57.43 2.53.13a15.54 15.54 0 0 1-3.14.43c-1.06 0 0 .5 0 .5l-.56-.09a24.57 24.57 0 0 0 3.42 2l1.05.06-.65.14a24.57 24.57 0 0 0 4.95 1.72c.08-.28.17-.55.27-.82-.31-.08-.95-1-.71-.74s.87 0 1.14-.21c0-.06.05-.12.08-.17.03-.05 0-.19-.18-.3-.74-.51-1-1.82-.51-1.27s1.95-.18 1.95-.18v.09a7.92 7.92 0 0 1 4.47-2.4 1.47 1.47 0 0 0 .47-1.07c-.1-1.17 1.11.93 1.11.93a2.55 2.55 0 0 0 .21-2c-.31-1.22 1.3.89 1.19 1.76-.11.87 1.59-.48 1.64-1.28 0-.63.59 1.26.47 2.29a8.48 8.48 0 0 1 3.13 2.51c.26-.21 1.31-.28 1-.2-.31.08-.73 1.58.09 1.21a1 1 0 0 1 .92 0 25.4 25.4 0 0 0 4.69-3c-.25-2.26-.62-4.66-1.11-7.22.28.11.572.19.87.24a2.64 2.64 0 0 0-.43-.58l1.78.06a5.14 5.14 0 0 0-2.29-2.22zm-10 .51c-.408.719-1.19 1.14-2 1.15l-.201-.01-.19.51a.18.18 0 0 1-.33 0l-.193-.62a2.173 2.173 0 0 1-.886-.6c-.246.304-.578.515-.942.657l-.168.573a.16.16 0 0 1-.3 0l-.179-.449-.201.009a2.16 2.16 0 0 1-1.94-1c-.14-.26.25-.47.39-.21a1.72 1.72 0 0 0 1.57.74 1.83 1.83 0 0 0 1.57-.85v-4c-.396-.388-.847-.923-1.25-1.37a.41.41 0 0 1 .31-.69h2.35a.41.41 0 0 1 .31.69c-.424.475-.887.962-1.32 1.41v4c.34.534.948.838 1.58.79a1.86 1.86 0 0 0 1.61-.9.22.22 0 0 1 .3-.1.23.23 0 0 1 .1.27z"/><path fill="#262626" d="M43.614 26.25c-.634-1.525-2.118-2.481-3.29-3.578-.273.91-.286 1.553-1.77 2.261-2.358.83-4.838 1.3-7.344 1.182-5.224-.014-10.48-1.01-15.293-3.06-2.62-1.143-4.915-3.3-5.813-6.055-1.28-.386-3.263-.23-3.452 1.44.1 1.87 1.917 3.08 3.345 4.044 3.288 2.028 6.938 3.382 10.557 4.689 5.392 1.752 11.112 2.124 16.748 2.017 1.791-.04 3.669.148 5.363-.513.997-.301 1.551-1.528.949-2.427zM11.674 17c.587 1.245 1.987 1.797 3.073 2.537 4.963 2.778 10.752 3.866 16.401 3.581 2.35-.15 4.801-.204 7-1.115 1.478-1.507-1.26-3.14-1.877-4.505-1.522-2.005-3.39-4.007-3.597-6.648-.589-2.325-3.09-3.324-5.244-3.601-2.451-.413-4.933.197-7.146 1.241-2.103-1.477-5.459-1.961-7.373.07-1.338 1.709-1.612 4.026-1.57 6.137.03.778.175 1.544.333 2.303zm9.28-8.12c2.097.11 5.132 1.692 7.837 1.826 1.402.066 1.803-.619.772-1.845.616-.198 2.372 1.435.973 2.296-1.54.996-3.502.313-5.116-.14-1.6-.482-3.122-1.131-4.466-2.137z"/></svg>