<svg xmlns="http://www.w3.org/2000/svg" width="156.012" height="168.655" viewBox="0 0 156.012 168.655">
  <g id="Group_1997" data-name="Group 1997" transform="translate(-418.235 -277.564)">
    <g id="Group_1990" data-name="Group 1990" transform="translate(418.235 308.77)">
      <g id="Group_1989" data-name="Group 1989">
        <path id="Path_828" data-name="Path 828" d="M481.711,436.1c23.532,0,42.608,4.253,42.608,9.5s-19.077,9.5-42.608,9.5-42.609-4.252-42.609-9.5S458.179,436.1,481.711,436.1Z" transform="translate(-419.403 -317.644)" fill="#2c2c43" fill-rule="evenodd" opacity="0.2"/>
        <g id="Group_1931" data-name="Group 1931" transform="translate(82.215 114.303)">
          <g id="Group_1930" data-name="Group 1930">
            <path id="Path_829" data-name="Path 829" d="M505.325,431.7c12.276,1.275,23.8,3.08,23.583,6.288-.431,6.288-15.023,1.162-23.583.31" transform="translate(-505.325 -431.701)" fill="#8ba1d2"/>
          </g>
        </g>
        <g id="Group_1944" data-name="Group 1944" transform="translate(0 12.925)">
          <g id="Group_1933" data-name="Group 1933" transform="translate(2.485 0.3)">
            <g id="Group_1932" data-name="Group 1932">
              <path id="Path_830" data-name="Path 830" d="M445.438,419.18c-22.1-4.421-26.446-30.412-18.46-44.359,3.81-6.654,10.209-12.007,11.968-19.471a17.787,17.787,0,0,0-10.991-20.137,13.961,13.961,0,0,1-3.706-1.556c-3.266-2.385-4.574-4.941-2.079-8.123,3.106-3.962,21.329,5.714,23.909,16.438,1.8,7.492,1.239,16.437-3.352,22.627-4.827,6.508-10.6,12.743-12.516,20.617-2.475,10.191,4.337,22.006,13.868,25.291" transform="translate(-420.868 -324.629)" fill="#8ba1d2"/>
            </g>
          </g>
          <g id="Group_1935" data-name="Group 1935">
            <g id="Group_1934" data-name="Group 1934">
              <path id="Path_831" data-name="Path 831" d="M422.3,324.328c-.73,0-1.388.125-1.4.283,0,0,1.484.9,1.124.906-1.086.029-2.975-1.056-3.6-1.176-.411-.079-.133.262.75,1.579,3.31,4.94.076,1.306.585,2.717a8.224,8.224,0,0,0,3.083,4.447,14.068,14.068,0,0,0,3.706,1.557c.351.125.695.265,1.035.414.549-.2,3.14-.157,2.768-.6-.26-.311-.881-.9-.623-1.454.318-.678,1.142-1.558,1.869-1.3,0,0-.251-1.3-.492-2.417-.13-.609,2.669-1.27,2.448-1.432a18.27,18.27,0,0,0-8.407-3.522C424.6,324.288,422.949,324.331,422.3,324.328Z" transform="translate(-418.235 -324.312)" fill="#4c5e9b"/>
            </g>
          </g>
          <g id="Group_1937" data-name="Group 1937" transform="translate(18.753 32.562)">
            <g id="Group_1936" data-name="Group 1936">
              <path id="Path_832" data-name="Path 832" d="M446.112,362.177c.572-.9.432-1.938.956-2.862a8.47,8.47,0,0,1-3.57,1.1c-.431.032-.871-1.258-1.16-.912-.389.467-.924.885-1.33.848-.312-.028-.335-1.824-.462-1.509a2.172,2.172,0,0,1-1.577,1.307c-.26.63-.555,1.243-.869,1.849,1.282.2,1.759-.3,2.538.751.18.243,2.126-1.073,2.427-1.065.352.01.224,1.261.581,1.246.379-.016,1.2-1.342,1.419-1.675C445.376,360.775,445.662,362.282,446.112,362.177Z" transform="translate(-438.1 -358.804)" fill="#4c5e9b"/>
            </g>
          </g>
          <g id="Group_1939" data-name="Group 1939" transform="translate(5.356 55.996)">
            <g id="Group_1938" data-name="Group 1938">
              <path id="Path_833" data-name="Path 833" d="M430.679,387.428a27.786,27.786,0,0,1,1.443-3.8c-.767.3-1.191,1.114-1.99,1.213-.581.074-1.531-.52-2.117-.543-.731-.028-1.485.742-2.2.582-.355-.079-.683-1.041-1.032-1.149a31.684,31.684,0,0,0-.871,3.812c.631.055,1.3.753,1.942.764.337,0,.636-.664.974-.668.453-.007.695.8.6.357-.163-.79,1.086-.695,1.456-.437C429.374,387.9,430.08,387.478,430.679,387.428Z" transform="translate(-423.908 -383.628)" fill="#4c5e9b"/>
            </g>
          </g>
          <g id="Group_1941" data-name="Group 1941" transform="translate(13.922 81.472)">
            <g id="Group_1940" data-name="Group 1940">
              <path id="Path_834" data-name="Path 834" d="M437.37,410.614c.038,1.057-.856.56-1.355,1.479-.172.316.462,1.82.244,2.117-.178.243-.779-.9-.984-.676-.162.182-.143,2.038-.32,2.212-.218.213-.457-.386-.692-.187-.411.346-.834,1.476-1.281,1.777a25.429,25.429,0,0,0,2.082,1.767c.312-.388,1.26-.046,1.536-.467.125-.191-.409-1.132-.292-1.328.264-.443,1.4.121,1.265-.385-.623-2.415,2.247-2.466,1.6-3.115a2.779,2.779,0,0,1-.625-2.119C438.143,411.343,437.748,410.989,437.37,410.614Z" transform="translate(-432.982 -410.614)" fill="#4c5e9b"/>
            </g>
          </g>
          <g id="Group_1943" data-name="Group 1943" transform="translate(19.213 13.517)">
            <g id="Group_1942" data-name="Group 1942">
              <path id="Path_835" data-name="Path 835" d="M445.68,339.249c-.282.6-2.007-.619-2.007-.619-.227.4.626,3.309.251,3.7-.358.375-1.676-1.414-1.676-.742a6.706,6.706,0,0,1-3.661,3.389c.245.513.462,1.038.658,1.57A2.483,2.483,0,0,1,441,347.626c.151.414.653-1.268,1.046-1.325.5-.075,1.625-.038,1.625.663,0,1.419,2.336-1.774,3.64-2.513C447.375,342.566,446.51,341.006,445.68,339.249Z" transform="translate(-438.587 -338.63)" fill="#4c5e9b"/>
            </g>
          </g>
        </g>
        <g id="Group_1946" data-name="Group 1946" transform="translate(23.494)">
          <g id="Group_1945" data-name="Group 1945">
            <path id="Path_836" data-name="Path 836" d="M478.631,322.265l-8.566-10.989c-.227,47.875-8.115,61.349-21.025,78.952-14.822,20.209-.063,50.061,24.994,49.576,13.137-.254,16.88-.389,28.855-3.249a29.218,29.218,0,0,0,22.228-25.576c2.212-22.314,2.922-48.879-15.128-97.4-.142-.38-1.4-2.96-1.4-2.96s-3.489,9.34-4.3,11.373Z" transform="translate(-443.122 -310.62)" fill="#8ba1d2"/>
          </g>
        </g>
        <g id="Group_1948" data-name="Group 1948" transform="translate(54.406 59.665)">
          <g id="Group_1947" data-name="Group 1947">
            <path id="Path_837" data-name="Path 837" d="M517.432,390.261a16.439,16.439,0,0,0-16.439-16.438c-9.079,0-15.86,6.626-16.438,16.438,0,0-3.38,31.669-8.688,53.955,13.514.308,28.806-.221,37-7.326C519.452,409.607,517.432,390.261,517.432,390.261Z" transform="translate(-475.867 -373.823)" fill="#c0b0ca"/>
          </g>
        </g>
        <g id="Group_1951" data-name="Group 1951" transform="translate(38.952 29.654)">
          <g id="Group_1950" data-name="Group 1950">
            <g id="Group_1949" data-name="Group 1949">
              <path id="Path_838" data-name="Path 838" d="M467.917,359.776c-1.4.215-4.421.667-5.816.883a9.753,9.753,0,0,1,4.373-5.145,29.866,29.866,0,0,0-6.976.947,18.951,18.951,0,0,1,9.238-10.1c-1.16.088-3.637.046-4.8.134,1.254-1.822,4.831-3.359,6.747-4.462" transform="translate(-459.497 -342.032)" fill="#8ba1d2"/>
            </g>
          </g>
        </g>
        <g id="Group_1954" data-name="Group 1954" transform="translate(97.065 30.053)">
          <g id="Group_1953" data-name="Group 1953">
            <g id="Group_1952" data-name="Group 1952">
              <path id="Path_839" data-name="Path 839" d="M525.857,359.759c1.411.052,4.468.152,5.879.2a9.758,9.758,0,0,0-4.939-4.6,29.807,29.807,0,0,1,7.039.133,18.952,18.952,0,0,0-10.345-8.964c1.163-.047,3.618-.376,4.782-.423-1.457-1.663-5.187-2.776-7.218-3.651" transform="translate(-521.055 -342.455)" fill="#8ba1d2"/>
            </g>
          </g>
        </g>
        <g id="Group_1956" data-name="Group 1956" transform="translate(36.559 120.298)">
          <g id="Group_1955" data-name="Group 1955">
            <path id="Path_840" data-name="Path 840" d="M456.962,441.42c8.5,6.608,27.048,9.241,28.11,6.206,2.083-5.949-13.349-6.987-21.553-9.575" transform="translate(-456.962 -438.051)" fill="#8ba1d2"/>
          </g>
        </g>
        <g id="Group_1962" data-name="Group 1962" transform="translate(79.233 17.021)">
          <g id="Group_1958" data-name="Group 1958" transform="translate(0 0)">
            <g id="Group_1957" data-name="Group 1957">
              <circle id="Ellipse_80" data-name="Ellipse 80" cx="5.08" cy="5.08" r="5.08" transform="matrix(0.923, -0.385, 0.385, 0.923, 0, 3.914)" fill="#fff"/>
            </g>
          </g>
          <g id="Group_1961" data-name="Group 1961" transform="translate(6.105 6.129)">
            <g id="Group_1960" data-name="Group 1960">
              <g id="Group_1959" data-name="Group 1959">
                <circle id="Ellipse_81" data-name="Ellipse 81" cx="0.58" cy="0.58" r="0.58" fill="#231f20"/>
              </g>
            </g>
          </g>
        </g>
        <g id="Group_1968" data-name="Group 1968" transform="translate(60.87 17.283)">
          <g id="Group_1964" data-name="Group 1964" transform="translate(0 0)">
            <g id="Group_1963" data-name="Group 1963">
              <circle id="Ellipse_82" data-name="Ellipse 82" cx="5.08" cy="5.08" r="5.08" transform="matrix(0.923, -0.385, 0.385, 0.923, 0, 3.914)" fill="#fff"/>
            </g>
          </g>
          <g id="Group_1967" data-name="Group 1967" transform="translate(6.133 6.157)">
            <g id="Group_1966" data-name="Group 1966">
              <g id="Group_1965" data-name="Group 1965">
                <circle id="Ellipse_83" data-name="Ellipse 83" cx="0.552" cy="0.552" r="0.552" fill="#231f20"/>
              </g>
            </g>
          </g>
        </g>
        <g id="Group_1970" data-name="Group 1970" transform="translate(73.283 32.288)">
          <g id="Group_1969" data-name="Group 1969">
            <path id="Path_841" data-name="Path 841" d="M496.673,344.823h4.59a.808.808,0,0,1,.6,1.348l-2.295,2.554a.808.808,0,0,1-1.2,0l-2.295-2.554A.808.808,0,0,1,496.673,344.823Z" transform="translate(-495.863 -344.823)" fill="#4c5e9b"/>
          </g>
        </g>
        <g id="Group_1971" data-name="Group 1971" transform="translate(53.041 15.878)">
          <path id="Path_842" data-name="Path 842" d="M485.442,347.652c-7.313,0-11.021-4.446-11.021-13.216,0-6.2,5.89-7,11.021-7,4.827,0,11.439,0,11.439,6.261C496.881,339.319,492.078,347.652,485.442,347.652Zm0-18.482c-6.6,0-9.292,1.526-9.292,5.266,0,4.932.964,11.487,9.292,11.487,5.359,0,9.708-7.4,9.708-12.222C495.151,329.848,492.02,329.17,485.442,329.17Z" transform="translate(-474.421 -327.44)" fill="#444445"/>
        </g>
        <g id="Group_1972" data-name="Group 1972" transform="translate(77.896 15.878)">
          <path id="Path_843" data-name="Path 843" d="M512.189,347.652c-6.636,0-11.439-8.334-11.439-13.952,0-6.261,6.611-6.261,11.439-6.261,5.131,0,11.021.8,11.021,7C523.21,343.206,519.5,347.652,512.189,347.652Zm0-18.482c-6.579,0-9.709.678-9.709,4.53,0,4.827,4.35,12.222,9.709,12.222,8.328,0,9.291-6.555,9.291-11.487C521.48,330.7,518.788,329.17,512.189,329.17Z" transform="translate(-500.75 -327.44)" fill="#444445"/>
        </g>
        <g id="Group_1973" data-name="Group 1973" transform="translate(74.281 21.616)">
          <rect id="Rectangle_899" data-name="Rectangle 899" width="4.836" height="1.73" fill="#444445"/>
        </g>
        <g id="Group_1975" data-name="Group 1975" transform="translate(74.869 32.692)">
          <g id="Group_1974" data-name="Group 1974">
            <path id="Path_844" data-name="Path 844" d="M499.1,350.937a4.924,4.924,0,0,1,1.567,2.23,4.6,4.6,0,0,1,.072,1.444,1.61,1.61,0,0,1-.431,1.215c-1.424,1.1-2.093.441-2.368.158a3.719,3.719,0,0,1-.395-2.009,2.25,2.25,0,0,1,.287-.937q.232-.479.484-.946a1.971,1.971,0,0,0,.336-.758c.032-.555-.039-1.154-.039-1.715V345.25h.9v6.488h-.9v-.425" transform="translate(-497.544 -345.25)" fill="#4c5e9b"/>
          </g>
        </g>
        <g id="Group_1976" data-name="Group 1976" transform="translate(39.736 60.456)">
          <path id="Path_845" data-name="Path 845" d="M461.879,374.705a27.961,27.961,0,0,0,4.73,0c1.246-.257-.935.678-.935.678h5.056l-1.11.831,4.933.262a30.542,30.542,0,0,1-6.128.829c-2.059-.07.011.987.011.987a15.081,15.081,0,0,1-4.009-1.038c-.467-.312-.1,1.038-.1,1.038l-4-.389Z" transform="translate(-460.327 -374.661)" fill="#4c5e9b"/>
        </g>
        <g id="Group_1977" data-name="Group 1977" transform="translate(69.605 11.576)">
          <path id="Path_846" data-name="Path 846" d="M498.9,322.882a11.362,11.362,0,0,0,2.225.769c.539.06-2.063.467-2.063.467l1.045.895-2.156.348,1.111,1.911s-2.849.093-4.134-1.986c-.417-.674-2.3.179-2.3.179s.575-1.488,1.246-1.737c.337-.126-1.908-.039-1.908-.039l.933-.745Z" transform="translate(-491.967 -322.882)" fill="#4c5e9b"/>
        </g>
        <g id="Group_1978" data-name="Group 1978" transform="translate(33.025 71.951)">
          <path id="Path_847" data-name="Path 847" d="M454.92,386.876a23.819,23.819,0,0,0,4.04,0c1.064-.219-.8.579-.8.579h4.318l-.948.71,4.212.224a26.019,26.019,0,0,1-5.232.707c-1.759-.059.009.843.009.843a12.888,12.888,0,0,1-3.424-.887c-.4-.266-.089.887-.089.887l-3.791-.369Z" transform="translate(-453.218 -386.838)" fill="#4c5e9b"/>
        </g>
        <g id="Group_1979" data-name="Group 1979" transform="translate(36.207 65.622)">
          <path id="Path_848" data-name="Path 848" d="M459.116,380.193a36.945,36.945,0,0,0,6.246,0c1.645-.34-1.235.894-1.235.894H470.8l-1.465,1.1,6.513.346a40.3,40.3,0,0,1-8.09,1.093c-2.718-.092.015,1.3.015,1.3s-4.065-.551-5.293-1.371c-.617-.412-.138,1.371-.138,1.371l-5.756-.559Z" transform="translate(-456.589 -380.133)" fill="#4c5e9b"/>
        </g>
        <g id="Group_1980" data-name="Group 1980" transform="translate(73.295 55.05)">
          <path id="Path_849" data-name="Path 849" d="M495.876,376.155s4.292-2.131,4.085-4.415,2.152,1.81,2.152,1.81a4.984,4.984,0,0,0,.427-3.887c-.606-2.389,2.524,1.72,2.31,3.418s3.108-.926,3.212-2.484,1.765,4.678.415,5.557-5.089,2.024-5.4,1.763S495.876,376.155,495.876,376.155Z" transform="translate(-495.876 -368.934)" fill="#c0b0ca"/>
        </g>
        <g id="Group_1981" data-name="Group 1981" transform="translate(93.767 89.329)">
          <path id="Path_850" data-name="Path 850" d="M518.562,412.743s1.236-2.445,2.541-2.318-1.026-1.238-1.026-1.238a2.852,2.852,0,0,1,2.224-.228c1.363.357-.973-1.45-1.946-1.334s.543-1.773,1.434-1.826-2.668-1.028-3.177-.261a7.91,7.91,0,0,0-1.03,3.08C517.73,408.8,518.562,412.743,518.562,412.743Z" transform="translate(-517.562 -405.246)" fill="#c0b0ca"/>
        </g>
        <g id="Group_1982" data-name="Group 1982" transform="translate(62.895 64.449)">
          <path id="Path_851" data-name="Path 851" d="M489.791,378.891s-2.8,1.454-3.79.363-.446,1.476,1,2.478-1.568,1.78-2.035,1.312.785,1.3,1.379,1.454S489.791,378.891,489.791,378.891Z" transform="translate(-484.86 -378.891)" fill="#c0b0ca"/>
        </g>
        <g id="Group_1983" data-name="Group 1983" transform="translate(92.46 65.622)">
          <path id="Path_852" data-name="Path 852" d="M519.194,386.481s.226-3.15,1.672-3.421a2.032,2.032,0,0,0-2.5-.5c-1.608.706-.829-2.216-.186-2.37s-1.517-.009-1.96.415S519.194,386.481,519.194,386.481Z" transform="translate(-516.178 -380.133)" fill="#c0b0ca"/>
        </g>
        <g id="Group_1984" data-name="Group 1984" transform="translate(95.163 79.922)">
          <path id="Path_853" data-name="Path 853" d="M519.2,395.281a1.09,1.09,0,0,0,1.117.753c.856-.078,1.09-.374,1.09-.374a2.755,2.755,0,0,1-.675,1.126c-.494.467-.312.351-.312.351a2.824,2.824,0,0,1,.7.714c.352.493-.092,1.142-.092,1.142a1.455,1.455,0,0,0-1.08-.7,1.134,1.134,0,0,1-.905-.935" transform="translate(-519.041 -395.281)" fill="#c0b0ca"/>
        </g>
        <g id="Group_1985" data-name="Group 1985" transform="translate(57.22 93.63)">
          <path id="Path_854" data-name="Path 854" d="M483.373,409.8s-1.48,2.306-2.765,2.045.893,1.337.893,1.337a2.849,2.849,0,0,1-2.235,0c-1.319-.494.819,1.543,1.8,1.527s-.722,1.708-1.613,1.669,2.547,1.3,3.132.584A7.9,7.9,0,0,0,483.923,414C483.795,413.811,483.373,409.8,483.373,409.8Z" transform="translate(-478.848 -409.802)" fill="#c0b0ca"/>
        </g>
        <g id="Group_1986" data-name="Group 1986" transform="translate(57.304 106.508)">
          <path id="Path_855" data-name="Path 855" d="M481.093,427.324a1.088,1.088,0,0,0-1.033-.863c-.86-.01-1.123.26-1.123.26a2.748,2.748,0,0,1,.787-1.052c.538-.413.346-.316.346-.316a2.852,2.852,0,0,1-.624-.783c-.3-.527.209-1.126.209-1.126a1.457,1.457,0,0,0,1,.808,1.131,1.131,0,0,1,.8,1.022" transform="translate(-478.937 -423.444)" fill="#c0b0ca"/>
        </g>
        <g id="Group_1987" data-name="Group 1987" transform="translate(48.496 4.678)">
          <path id="Path_856" data-name="Path 856" d="M471.524,316.854l-1.917-1.278,1.917,3.286h-1.46l1.46,1.369-.958,1.552h.958" transform="translate(-469.607 -315.576)" fill="#8ba1d2"/>
        </g>
        <g id="Group_1988" data-name="Group 1988" transform="translate(90.91 3.153)">
          <path id="Path_857" data-name="Path 857" d="M514.535,316.352l1.958-2.392-.872,3.7,1.4-.427-1,1.736,1.37,1.2-1.57.581" transform="translate(-514.535 -313.96)" fill="#8ba1d2"/>
        </g>
      </g>
    </g>
    <g id="Group_1992" data-name="Group 1992" transform="translate(499.752 277.564)">
      <rect id="Rectangle_900" data-name="Rectangle 900" width="5.664" height="75.998" rx="2.616" transform="translate(31.439 46.998) rotate(14.975)" fill="#d8d8d8"/>
      <path id="Path_858" data-name="Path 858" d="M537.261,277.564l-25,14.142-7.677,27.677,14.142,25,27.677,7.677,25-14.142,7.677-27.677-14.142-25Z" transform="translate(-504.585 -277.564)" fill="#fab818"/>
      <path id="Path_859" data-name="Path 859" d="M538.537,284.99l-20.294,11.481-6.232,22.468,11.481,20.294,22.468,6.232,20.294-11.481,6.232-22.468L561,291.222Z" transform="translate(-505.001 -277.98)" fill="none" stroke="#fff" stroke-miterlimit="10" stroke-width="2.385"/>
      <g id="Group_1991" data-name="Group 1991" transform="translate(28.011 13.951)">
        <path id="Path_860" data-name="Path 860" d="M534.421,333.758a4.049,4.049,0,0,1,5.025-3.11,4.286,4.286,0,0,1-2.169,8.282A4.046,4.046,0,0,1,534.421,333.758Zm4.172-9.114,7.465-32.3,6.411,1.68-9.335,31.812Z" transform="translate(-534.257 -292.342)" fill="#fff"/>
      </g>
    </g>
    <g id="Group_1996" data-name="Group 1996" transform="translate(522.837 368.482)">
      <g id="Group_1995" data-name="Group 1995" transform="translate(0 0)">
        <g id="Group_1994" data-name="Group 1994">
          <g id="Group_1993" data-name="Group 1993">
            <path id="Path_861" data-name="Path 861" d="M529.64,382.989c.186-4.973-1.04-5.228-.428-7.473,1.249-4.577,14.858.007.7,18.887" transform="translate(-529.04 -373.873)" fill="#8ba1d2"/>
          </g>
        </g>
      </g>
    </g>
  </g>
</svg>
